<mxfile host="app.diagrams.net" modified="2021-10-19T05:37:50.436Z" agent="5.0 (Windows NT 10.0; Win64; x64) AppleWebKit/537.36 (KHTML, like Gecko) Chrome/94.0.4606.81 Safari/537.36" etag="uOLy0E3mOEAjXv4_ySnk" version="15.5.5" type="github">
  <diagram id="C5RBs43oDa-KdzZeNtuy" name="Page-1">
    <mxGraphModel dx="868" dy="450" grid="1" gridSize="10" guides="1" tooltips="1" connect="1" arrows="1" fold="1" page="1" pageScale="1" pageWidth="827" pageHeight="1169" math="0" shadow="0">
      <root>
        <mxCell id="WIyWlLk6GJQsqaUBKTNV-0" />
        <mxCell id="WIyWlLk6GJQsqaUBKTNV-1" parent="WIyWlLk6GJQsqaUBKTNV-0" />
        <mxCell id="HduuxqOzp4L3R3Yh22v2-0" value="Cliente" style="swimlane;fontStyle=0;childLayout=stackLayout;horizontal=1;startSize=26;fillColor=none;horizontalStack=0;resizeParent=1;resizeParentMax=0;resizeLast=0;collapsible=1;marginBottom=0;" vertex="1" parent="WIyWlLk6GJQsqaUBKTNV-1">
          <mxGeometry x="340" y="780" width="180" height="130" as="geometry" />
        </mxCell>
        <mxCell id="HduuxqOzp4L3R3Yh22v2-1" value="- numeroDeCliente:Integer" style="text;strokeColor=none;fillColor=none;align=left;verticalAlign=top;spacingLeft=4;spacingRight=4;overflow=hidden;rotatable=0;points=[[0,0.5],[1,0.5]];portConstraint=eastwest;" vertex="1" parent="HduuxqOzp4L3R3Yh22v2-0">
          <mxGeometry y="26" width="180" height="26" as="geometry" />
        </mxCell>
        <mxCell id="HduuxqOzp4L3R3Yh22v2-2" value="- apellido: String" style="text;strokeColor=none;fillColor=none;align=left;verticalAlign=top;spacingLeft=4;spacingRight=4;overflow=hidden;rotatable=0;points=[[0,0.5],[1,0.5]];portConstraint=eastwest;" vertex="1" parent="HduuxqOzp4L3R3Yh22v2-0">
          <mxGeometry y="52" width="180" height="26" as="geometry" />
        </mxCell>
        <mxCell id="HduuxqOzp4L3R3Yh22v2-3" value="- DNI: String&#xa;&#xa;- CUIT: String" style="text;strokeColor=none;fillColor=none;align=left;verticalAlign=top;spacingLeft=4;spacingRight=4;overflow=hidden;rotatable=0;points=[[0,0.5],[1,0.5]];portConstraint=eastwest;" vertex="1" parent="HduuxqOzp4L3R3Yh22v2-0">
          <mxGeometry y="78" width="180" height="52" as="geometry" />
        </mxCell>
        <mxCell id="HduuxqOzp4L3R3Yh22v2-4" value="Cuenta" style="swimlane;fontStyle=2;childLayout=stackLayout;horizontal=1;startSize=26;fillColor=none;horizontalStack=0;resizeParent=1;resizeParentMax=0;resizeLast=0;collapsible=1;marginBottom=0;" vertex="1" parent="WIyWlLk6GJQsqaUBKTNV-1">
          <mxGeometry x="280" y="600" width="280" height="104" as="geometry">
            <mxRectangle x="280" y="560" width="90" height="26" as="alternateBounds" />
          </mxGeometry>
        </mxCell>
        <mxCell id="HduuxqOzp4L3R3Yh22v2-5" value="+ abstract depositar(double efectivo):void" style="text;strokeColor=none;fillColor=none;align=left;verticalAlign=top;spacingLeft=4;spacingRight=4;overflow=hidden;rotatable=0;points=[[0,0.5],[1,0.5]];portConstraint=eastwest;" vertex="1" parent="HduuxqOzp4L3R3Yh22v2-4">
          <mxGeometry y="26" width="280" height="26" as="geometry" />
        </mxCell>
        <mxCell id="HduuxqOzp4L3R3Yh22v2-6" value="+ abstract extraer(double efectivo):double" style="text;strokeColor=none;fillColor=none;align=left;verticalAlign=top;spacingLeft=4;spacingRight=4;overflow=hidden;rotatable=0;points=[[0,0.5],[1,0.5]];portConstraint=eastwest;" vertex="1" parent="HduuxqOzp4L3R3Yh22v2-4">
          <mxGeometry y="52" width="280" height="26" as="geometry" />
        </mxCell>
        <mxCell id="HduuxqOzp4L3R3Yh22v2-7" value="+ informar():void" style="text;strokeColor=none;fillColor=none;align=left;verticalAlign=top;spacingLeft=4;spacingRight=4;overflow=hidden;rotatable=0;points=[[0,0.5],[1,0.5]];portConstraint=eastwest;" vertex="1" parent="HduuxqOzp4L3R3Yh22v2-4">
          <mxGeometry y="78" width="280" height="26" as="geometry" />
        </mxCell>
        <mxCell id="HduuxqOzp4L3R3Yh22v2-8" value="" style="endArrow=classic;html=1;rounded=0;exitX=0.45;exitY=0.962;exitDx=0;exitDy=0;exitPerimeter=0;" edge="1" parent="WIyWlLk6GJQsqaUBKTNV-1" source="HduuxqOzp4L3R3Yh22v2-7">
          <mxGeometry width="50" height="50" relative="1" as="geometry">
            <mxPoint x="340" y="670" as="sourcePoint" />
            <mxPoint x="440" y="780" as="targetPoint" />
            <Array as="points" />
          </mxGeometry>
        </mxCell>
        <mxCell id="HduuxqOzp4L3R3Yh22v2-9" value="1" style="rounded=0;whiteSpace=wrap;html=1;" vertex="1" parent="WIyWlLk6GJQsqaUBKTNV-1">
          <mxGeometry x="350" y="710" width="20" height="20" as="geometry" />
        </mxCell>
        <mxCell id="HduuxqOzp4L3R3Yh22v2-10" value="1" style="rounded=0;whiteSpace=wrap;html=1;" vertex="1" parent="WIyWlLk6GJQsqaUBKTNV-1">
          <mxGeometry x="440" y="750" width="20" height="20" as="geometry" />
        </mxCell>
        <mxCell id="HduuxqOzp4L3R3Yh22v2-22" value="CajaDeAhorro" style="swimlane;fontStyle=1;align=center;verticalAlign=top;childLayout=stackLayout;horizontal=1;startSize=26;horizontalStack=0;resizeParent=1;resizeParentMax=0;resizeLast=0;collapsible=1;marginBottom=0;" vertex="1" parent="WIyWlLk6GJQsqaUBKTNV-1">
          <mxGeometry x="592" y="450" width="235" height="210" as="geometry" />
        </mxCell>
        <mxCell id="HduuxqOzp4L3R3Yh22v2-23" value="- saldo:double&#xa;&#xa;- tasaDeInteres: Int" style="text;strokeColor=none;fillColor=none;align=left;verticalAlign=top;spacingLeft=4;spacingRight=4;overflow=hidden;rotatable=0;points=[[0,0.5],[1,0.5]];portConstraint=eastwest;" vertex="1" parent="HduuxqOzp4L3R3Yh22v2-22">
          <mxGeometry y="26" width="235" height="54" as="geometry" />
        </mxCell>
        <mxCell id="HduuxqOzp4L3R3Yh22v2-24" value="" style="line;strokeWidth=1;fillColor=none;align=left;verticalAlign=middle;spacingTop=-1;spacingLeft=3;spacingRight=3;rotatable=0;labelPosition=right;points=[];portConstraint=eastwest;" vertex="1" parent="HduuxqOzp4L3R3Yh22v2-22">
          <mxGeometry y="80" width="235" height="40" as="geometry" />
        </mxCell>
        <mxCell id="HduuxqOzp4L3R3Yh22v2-33" value="&lt;span style=&quot;text-align: left&quot;&gt;+ depositar(double efectivo):void&lt;br&gt;&lt;br&gt;&lt;/span&gt;&lt;span style=&quot;text-align: left&quot;&gt;+ extraer(double efectivo):double&lt;br&gt;&lt;br&gt;&lt;/span&gt;&lt;span style=&quot;text-align: left&quot;&gt;+ cobrarInteres():void&lt;br&gt;&lt;br&gt;&lt;/span&gt;" style="text;html=1;align=center;verticalAlign=middle;resizable=0;points=[];autosize=1;strokeColor=none;fillColor=none;" vertex="1" parent="HduuxqOzp4L3R3Yh22v2-22">
          <mxGeometry y="120" width="235" height="90" as="geometry" />
        </mxCell>
        <mxCell id="HduuxqOzp4L3R3Yh22v2-26" value="Classname" style="swimlane;fontStyle=1;align=center;verticalAlign=top;childLayout=stackLayout;horizontal=1;startSize=26;horizontalStack=0;resizeParent=1;resizeParentMax=0;resizeLast=0;collapsible=1;marginBottom=0;" vertex="1" parent="WIyWlLk6GJQsqaUBKTNV-1">
          <mxGeometry x="620" y="717" width="160" height="86" as="geometry" />
        </mxCell>
        <mxCell id="HduuxqOzp4L3R3Yh22v2-27" value="+ field: type" style="text;strokeColor=none;fillColor=none;align=left;verticalAlign=top;spacingLeft=4;spacingRight=4;overflow=hidden;rotatable=0;points=[[0,0.5],[1,0.5]];portConstraint=eastwest;" vertex="1" parent="HduuxqOzp4L3R3Yh22v2-26">
          <mxGeometry y="26" width="160" height="26" as="geometry" />
        </mxCell>
        <mxCell id="HduuxqOzp4L3R3Yh22v2-28" value="" style="line;strokeWidth=1;fillColor=none;align=left;verticalAlign=middle;spacingTop=-1;spacingLeft=3;spacingRight=3;rotatable=0;labelPosition=right;points=[];portConstraint=eastwest;" vertex="1" parent="HduuxqOzp4L3R3Yh22v2-26">
          <mxGeometry y="52" width="160" height="8" as="geometry" />
        </mxCell>
        <mxCell id="HduuxqOzp4L3R3Yh22v2-29" value="+ method(type): type" style="text;strokeColor=none;fillColor=none;align=left;verticalAlign=top;spacingLeft=4;spacingRight=4;overflow=hidden;rotatable=0;points=[[0,0.5],[1,0.5]];portConstraint=eastwest;" vertex="1" parent="HduuxqOzp4L3R3Yh22v2-26">
          <mxGeometry y="60" width="160" height="26" as="geometry" />
        </mxCell>
        <mxCell id="HduuxqOzp4L3R3Yh22v2-31" value="" style="endArrow=classic;html=1;rounded=0;exitX=-0.019;exitY=0.885;exitDx=0;exitDy=0;exitPerimeter=0;entryX=1.011;entryY=0.125;entryDx=0;entryDy=0;entryPerimeter=0;" edge="1" parent="WIyWlLk6GJQsqaUBKTNV-1" source="HduuxqOzp4L3R3Yh22v2-23" target="HduuxqOzp4L3R3Yh22v2-4">
          <mxGeometry width="50" height="50" relative="1" as="geometry">
            <mxPoint x="450" y="582" as="sourcePoint" />
            <mxPoint x="500" y="532" as="targetPoint" />
          </mxGeometry>
        </mxCell>
        <mxCell id="HduuxqOzp4L3R3Yh22v2-32" value="" style="endArrow=classic;html=1;rounded=0;exitX=-0.025;exitY=0.769;exitDx=0;exitDy=0;entryX=1.011;entryY=0.769;entryDx=0;entryDy=0;entryPerimeter=0;exitPerimeter=0;" edge="1" parent="WIyWlLk6GJQsqaUBKTNV-1" source="HduuxqOzp4L3R3Yh22v2-27" target="HduuxqOzp4L3R3Yh22v2-7">
          <mxGeometry width="50" height="50" relative="1" as="geometry">
            <mxPoint x="606.96" y="573.01" as="sourcePoint" />
            <mxPoint x="573" y="623" as="targetPoint" />
            <Array as="points" />
          </mxGeometry>
        </mxCell>
      </root>
    </mxGraphModel>
  </diagram>
</mxfile>
